# xmcd
# Track frame offsets:
# 150
# 14250
# 31566
# 48804
# 67849
# 83597
# 97922
# 116135
# 137745
#
# Disc length: 2056 seconds
# Revision: 0
# Processed by: cddbd v1.5.1PL0 Copyright (c) Steve Scherf et al.
# Submitted via: VisiTrax 2.9.10.228 - For more info visit www.synapsa.com
#
DISCID=5e080609
DTITLE=Various Artist - Hits Monthly Nashville  PHN0305
DYEAR=1900
DGENRE=Karaoke
TTITLE0=Smith, Anthony - Half A Man
TTITLE1=Messina, Jo Dee - Was That My Life
TTITLE2=Coffey, Kellie - Whatever It Takes
TTITLE3=Evans, Sara - Backseat Of A Greyhound Bus
TTITLE4=Chesnutt, Mark - I'm In Love With A Married Woman
TTITLE5=Rascal Flatts - Love You Out Loud
TTITLE6=Holy, Steve - Rck-a-bye Heart
TTITLE7=Morgan, Craig - Almost Home
TTITLE8=Wayne, Jimmy - Stay Gone
EXTD=
EXTT0=
EXTT1=
EXTT2=
EXTT3=
EXTT4=
EXTT5=
EXTT6=
EXTT7=
EXTT8=
PLAYORDER=
